<?xml version="1.0" encoding="utf-8"?>

<!DOCTYPE svg PUBLIC "-//W3C//DTD SVG 1.1//EN" "http://www.w3.org/Graphics/SVG/1.1/DTD/svg11.dtd">
<svg version="1.1" id="Layer_1" xmlns="http://www.w3.org/2000/svg" xmlns:xlink="http://www.w3.org/1999/xlink" x="0px" y="0px"
	 viewBox="0 0 1661.058 1661.058" enable-background="new 0 0 1661.058 1661.058" xml:space="preserve">
<g>
	<path d="M1557.257,103.801c-33.732-17.046-73.001-28.3-116.802-31.1c-6.713-0.429-8.122,1.481-6.038,7.903
		c15.471,47.683,6.886,46.903,30.094,48.313c22.474,1.366,41.336,5.053,57.309,10.322c5.269,15.973,8.957,34.835,10.322,57.309
		c1.41,23.207,0.63,14.622,48.313,30.094c6.422,2.084,8.332,0.675,7.903-6.038C1585.557,176.802,1574.303,137.533,1557.257,103.801z
		 M1557.257,1557.257c17.046-33.732,28.3-73.001,31.1-116.802c0.429-6.713-1.481-8.122-7.903-6.038
		c-47.683,15.471-46.903,6.886-48.313,30.094c-1.366,22.474-5.053,41.336-10.322,57.309c-15.973,5.269-34.836,8.957-57.309,10.322
		c-23.207,1.41-14.622,0.63-30.094,48.313c-2.084,6.422-0.675,8.332,6.038,7.903
		C1484.255,1585.557,1523.525,1574.303,1557.257,1557.257z M103.801,1557.257c33.732,17.046,73.002,28.3,116.803,31.1
		c6.713,0.429,8.122-1.481,6.038-7.903c-15.471-47.683-6.886-46.903-30.094-48.313c-22.474-1.366-41.336-5.053-57.309-10.322
		c-5.269-15.973-8.957-34.836-10.322-57.309c-1.41-23.207-0.63-14.622-48.313-30.094c-6.423-2.084-8.332-0.675-7.903,6.038
		C75.501,1484.255,86.755,1523.525,103.801,1557.257z M103.801,103.801c-17.046,33.732-28.3,73.002-31.1,116.803
		c-0.429,6.713,1.481,8.122,7.903,6.038c47.683-15.471,46.903-6.886,48.313-30.094c1.366-22.474,5.053-41.336,10.322-57.309
		c15.973-5.269,34.835-8.957,57.309-10.322c23.207-1.41,14.622-0.63,30.094-48.313c2.084-6.423,0.675-8.332-6.038-7.903
		C176.802,75.501,137.533,86.755,103.801,103.801z M1393.429,74.969c-13.253,1.86,3.247,14.554,15.655,53.606
		c0.89,2.802,2.172,5.011,5.482,4.151c22.499-5.841,23.745,10.902-1.166-54.477C1411.012,71.985,1408.878,72.801,1393.429,74.969z
		 M74.969,267.629c1.86,13.253,14.554-3.247,53.606-15.655c2.802-0.89,5.011-2.172,4.151-5.482
		c-5.841-22.499,10.902-23.745-54.477,1.166C71.985,250.046,72.801,252.18,74.969,267.629z M267.629,1586.089
		c13.253-1.86-3.247-14.554-15.655-53.606c-0.89-2.802-2.172-5.011-5.482-4.151c-22.499,5.841-23.745-10.902,1.166,54.477
		C250.046,1589.073,252.18,1588.257,267.629,1586.089z M1586.089,1393.429c-1.86-13.253-14.554,3.247-53.606,15.655
		c-2.802,0.89-5.011,2.172-4.151,5.482c5.841,22.499-10.902,23.745,54.477-1.166
		C1589.073,1411.012,1588.257,1408.878,1586.089,1393.429z M1582.808,247.658c-65.379-24.911-48.636-23.666-54.477-1.166
		c-0.859,3.31,1.349,4.592,4.151,5.482c39.053,12.407,51.746,28.907,53.606,15.655
		C1588.257,252.18,1589.073,250.046,1582.808,247.658z M247.658,78.25c-24.911,65.379-23.666,48.636-1.166,54.477
		c3.31,0.859,4.592-1.349,5.482-4.151c12.407-39.053,28.907-51.746,15.655-53.606C252.18,72.801,250.046,71.985,247.658,78.25z
		 M78.25,1413.4c65.379,24.911,48.636,23.666,54.477,1.166c0.859-3.31-1.349-4.592-4.151-5.482
		c-39.053-12.407-51.746-28.907-53.606-15.655C72.801,1408.878,71.985,1411.012,78.25,1413.4z M1413.4,1582.808
		c24.911-65.379,23.666-48.636,1.166-54.477c-3.31-0.859-4.592,1.349-5.482,4.151c-12.407,39.053-28.907,51.746-15.655,53.606
		C1408.878,1588.257,1411.012,1589.073,1413.4,1582.808z M940.369,64.425c-13.395-32.538-21.115-22.251-34.207-10.94
		c-10.509,9.08-10.283,10.885,1.114,18.296c17.639,11.469,8.731,22.047,28.414-0.471C937.531,69.204,940.469,67.754,940.369,64.425z
		 M64.425,720.688c-32.538,13.395-22.251,21.115-10.94,34.207c9.08,10.509,10.885,10.283,18.296-1.114
		c11.469-17.639,22.047-8.731-0.471-28.413C69.204,723.527,67.754,720.589,64.425,720.688z M720.688,1596.633
		c13.395,32.538,21.115,22.251,34.207,10.94c10.509-9.08,10.283-10.885-1.114-18.296c-17.639-11.469-8.731-22.047-28.413,0.471
		C723.527,1591.854,720.589,1593.304,720.688,1596.633z M1596.633,940.369c32.538-13.395,22.251-21.115,10.94-34.207
		c-9.08-10.509-10.885-10.283-18.296,1.114c-11.469,17.639-22.047,8.731,0.471,28.414
		C1591.854,937.531,1593.304,940.469,1596.633,940.369z M1589.747,725.369c-22.518,19.683-11.939,10.774-0.471,28.413
		c7.411,11.397,9.216,11.623,18.296,1.114c11.312-13.092,21.599-20.813-10.94-34.207
		C1593.304,720.589,1591.854,723.527,1589.747,725.369z M725.369,71.311c19.683,22.518,10.774,11.939,28.413,0.471
		c11.397-7.411,11.623-9.216,1.114-18.296c-13.092-11.312-20.813-21.599-34.207,10.94C720.589,67.754,723.527,69.204,725.369,71.311
		z M71.311,935.689c22.518-19.683,11.939-10.774,0.471-28.414c-7.411-11.397-9.216-11.623-18.296-1.114
		c-11.312,13.092-21.599,20.813,10.94,34.207C67.754,940.469,69.204,937.531,71.311,935.689z M935.689,1589.747
		c-19.683-22.518-10.774-11.939-28.414-0.471c-11.397,7.411-11.623,9.216-1.114,18.296c13.092,11.312,20.813,21.599,34.207-10.94
		C940.469,1593.304,937.531,1591.854,935.689,1589.747z M1436.321,115.154c0.626-0.194,1.252-0.387,1.877-0.581
		c-11.171-38.762-11.205-44.127-17.069-41.438C1418.359,74.405,1418.643,73.078,1436.321,115.154z M115.154,224.737
		c-0.194-0.626-0.387-1.252-0.581-1.877c-38.762,11.171-44.127,11.205-41.438,17.069C74.405,242.699,73.078,242.415,115.154,224.737
		z M224.737,1545.904c-0.626,0.194-1.252,0.387-1.877,0.581c11.171,38.762,11.205,44.127,17.069,41.438
		C242.699,1586.653,242.415,1587.98,224.737,1545.904z M1545.904,1436.321c0.194,0.626,0.387,1.252,0.581,1.877
		c38.762-11.171,44.127-11.205,41.438-17.069C1586.653,1418.359,1587.98,1418.643,1545.904,1436.321z M1587.923,239.929
		c2.689-5.864-2.676-5.898-41.438-17.069c-0.194,0.626-0.387,1.252-0.581,1.877C1587.98,242.415,1586.653,242.699,1587.923,239.929z
		 M239.929,73.135c-5.864-2.689-5.898,2.676-17.069,41.438c0.626,0.194,1.252,0.387,1.877,0.581
		C242.415,73.078,242.699,74.405,239.929,73.135z M73.135,1421.129c-2.689,5.864,2.676,5.899,41.438,17.069
		c0.194-0.626,0.387-1.251,0.581-1.877C73.078,1418.643,74.405,1418.359,73.135,1421.129z M1421.129,1587.923
		c5.864,2.689,5.899-2.676,17.069-41.438c-0.626-0.194-1.251-0.387-1.877-0.581
		C1418.643,1587.98,1418.359,1586.653,1421.129,1587.923z M1512.201,148.857c-24.872-7.572-52.712-10.321-82.735-6.972
		c-45.233,5.046-74.903,23.707-82.31,67.014c-2.063,12.064,5.017,22.938,15.423,25.34c-3.826-11.138-3.934-21.564,1.777-32.111
		c5.795-10.702,29.988-18.744,46.468-14.73c18.824,4.586,30.217,14.813,35.669,27.166c12.352,5.452,22.58,16.846,27.166,35.669
		c4.015,16.48-4.028,40.672-14.73,46.467c-10.547,5.712-20.973,5.603-32.111,1.777c2.403,10.407,13.276,17.487,25.34,15.423
		c43.307-7.408,61.968-37.078,67.015-82.31C1522.522,201.569,1519.773,173.729,1512.201,148.857z M148.857,148.857
		c-7.572,24.872-10.321,52.712-6.972,82.735c5.046,45.233,23.707,74.903,67.014,82.31c12.064,2.063,22.938-5.017,25.34-15.423
		c-11.138,3.826-21.564,3.934-32.111-1.777c-10.702-5.795-18.744-29.988-14.73-46.467c4.586-18.824,14.813-30.217,27.166-35.669
		c5.452-12.352,16.846-22.58,35.669-27.166c16.48-4.015,40.672,4.028,46.467,14.73c5.712,10.547,5.603,20.973,1.777,32.111
		c10.407-2.403,17.487-13.276,15.423-25.34c-7.408-43.307-37.078-61.968-82.31-67.014
		C201.569,138.536,173.729,141.285,148.857,148.857z M148.857,1512.201c24.872,7.572,52.712,10.321,82.735,6.972
		c45.233-5.046,74.903-23.707,82.31-67.015c2.063-12.064-5.017-22.938-15.423-25.34c3.826,11.138,3.934,21.564-1.777,32.111
		c-5.795,10.702-29.988,18.744-46.467,14.73c-18.824-4.586-30.217-14.813-35.669-27.166c-12.352-5.452-22.58-16.846-27.166-35.669
		c-4.015-16.48,4.028-40.672,14.73-46.468c10.547-5.712,20.973-5.603,32.111-1.777c-2.403-10.407-13.276-17.487-25.34-15.423
		c-43.307,7.408-61.968,37.078-67.014,82.31C138.536,1459.489,141.285,1487.329,148.857,1512.201z M1512.201,1512.201
		c7.572-24.872,10.321-52.712,6.972-82.735c-5.046-45.233-23.707-74.903-67.015-82.31c-12.064-2.063-22.938,5.017-25.34,15.423
		c11.138-3.826,21.564-3.934,32.111,1.777c10.702,5.795,18.744,29.988,14.73,46.468c-4.586,18.824-14.813,30.217-27.166,35.669
		c-5.452,12.352-16.846,22.58-35.669,27.166c-16.48,4.015-40.672-4.028-46.468-14.73c-5.712-10.547-5.603-20.973-1.777-32.111
		c-10.407,2.403-17.487,13.276-15.423,25.34c7.408,43.307,37.078,61.968,82.31,67.015
		C1459.489,1522.522,1487.329,1519.773,1512.201,1512.201z M1367.365,293.693c-18.036-2.203-35.045-9.394-50.97-21.651
		c-13.296-10.234-29.108,22.662-72.636,25.483c-5.508,0.357-8.353-0.638-9.684-7.584c-2.999-15.646-12.084-28.882-20.383-42.28
		c-2.506-4.047-5.096-1.349-7.458-0.237c-27.982,13.171-52.679,31.767-125.134,28.814c-157.516-6.42-161.957-124.263-212.28-136.737
		c3.203,5.746,27.575,31.371,8.336,55.434c-9.572,11.973-21.887,17.582-38.619,13.796c-2.853-0.645-5.518-1.392-8.008-2.229
		c-2.49,0.837-5.155,1.583-8.008,2.229c-16.732,3.786-29.047-1.823-38.619-13.796c-19.238-24.063,5.134-49.688,8.336-55.434
		c-50.323,12.474-54.764,130.317-212.28,136.737c-72.455,2.953-97.152-15.643-125.134-28.814c-2.362-1.112-4.951-3.81-7.458,0.237
		c-8.299,13.398-17.385,26.634-20.383,42.28c-1.331,6.946-4.176,7.941-9.684,7.584c-43.528-2.821-59.34-35.717-72.636-25.483
		c-15.925,12.257-32.934,19.447-50.97,21.651c-2.203,18.036-9.394,35.045-21.651,50.97c-10.234,13.296,22.662,29.108,25.483,72.636
		c0.357,5.508-0.638,8.353-7.584,9.684c-15.646,2.999-28.882,12.084-42.28,20.383c-4.047,2.506-1.349,5.096-0.237,7.458
		c13.171,27.982,31.767,52.679,28.814,125.134c-6.42,157.516-124.263,161.957-136.737,212.28
		c5.746-3.203,31.371-27.575,55.434-8.336c11.973,9.572,17.582,21.887,13.796,38.619c-0.645,2.853-1.392,5.518-2.229,8.008
		c0.837,2.49,1.583,5.155,2.229,8.008c3.786,16.732-1.823,29.047-13.796,38.619c-24.063,19.238-49.688-5.134-55.434-8.336
		c12.474,50.323,130.317,54.764,136.737,212.28c2.953,72.455-15.643,97.152-28.814,125.134c-1.112,2.362-3.81,4.951,0.237,7.458
		c13.398,8.299,26.634,17.385,42.28,20.383c6.946,1.331,7.941,4.176,7.584,9.684c-2.821,43.528-35.717,59.34-25.483,72.636
		c12.257,15.925,19.447,32.934,21.651,50.97c18.036,2.203,35.045,9.394,50.97,21.651c13.296,10.234,29.108-22.662,72.636-25.483
		c5.508-0.357,8.353,0.638,9.684,7.584c2.999,15.646,12.084,28.882,20.383,42.28c2.506,4.047,5.096,1.349,7.458,0.237
		c27.982-13.171,52.679-31.767,125.134-28.814c157.516,6.42,161.957,124.263,212.28,136.737
		c-3.203-5.746-27.575-31.371-8.336-55.434c9.572-11.973,21.887-17.582,38.619-13.796c2.853,0.645,5.518,1.392,8.008,2.229
		c2.49-0.837,5.155-1.583,8.008-2.229c16.732-3.786,29.047,1.823,38.619,13.796c19.238,24.063-5.134,49.688-8.336,55.434
		c50.323-12.474,54.764-130.317,212.28-136.737c72.455-2.953,97.152,15.643,125.134,28.814c2.362,1.112,4.951,3.81,7.458-0.237
		c8.299-13.398,17.385-26.634,20.383-42.28c1.331-6.946,4.176-7.941,9.684-7.584c43.528,2.821,59.34,35.717,72.636,25.483
		c15.925-12.257,32.934-19.447,50.97-21.651c2.203-18.036,9.394-35.045,21.651-50.97c10.234-13.296-22.662-29.108-25.483-72.636
		c-0.357-5.508,0.638-8.353,7.584-9.684c15.646-2.999,28.882-12.084,42.28-20.383c4.047-2.506,1.349-5.096,0.237-7.458
		c-13.171-27.982-31.767-52.679-28.814-125.134c6.42-157.516,124.263-161.957,136.737-212.28
		c-5.746,3.203-31.371,27.575-55.434,8.336c-11.973-9.572-17.582-21.887-13.796-38.619c0.645-2.853,1.392-5.518,2.229-8.008
		c-0.837-2.49-1.583-5.155-2.229-8.008c-3.786-16.732,1.823-29.047,13.796-38.619c24.063-19.238,49.688,5.134,55.434,8.336
		c-12.474-50.323-130.317-54.764-136.737-212.28c-2.953-72.455,15.643-97.152,28.814-125.134c1.112-2.362,3.81-4.951-0.237-7.458
		c-13.398-8.299-26.634-17.385-42.28-20.383c-6.946-1.331-7.941-4.176-7.584-9.684c2.821-43.528,35.717-59.34,25.483-72.636
		C1376.759,328.738,1369.569,311.729,1367.365,293.693z M830.529,42.373c19.9,2.87,39.22,7.781,56.535,19.379
		c3.424,2.294,5.296,1.561,6.827-1.721c6.044-12.948,19.845-17.747,28.906-27.535c2.397-2.59,5.297-2.968,6.831,0.981
		c3.888,10.011,15.091,12.646,20.747,20.87c1.705,2.479,3.583,0.472,5.268-0.495c48.805-27.994,92.625-13.696,173.177,7.372
		c101.511,26.549,145.987-37.876,219.596-2.869c5.509,2.619,3.368,6.632-1.405,7.05c-15.664,1.373-27.141-2.612-56.846,8.008
		c-17.797,6.363-19.416,31.963-67.786,37.824c-5.378,0.652-6.543,1.813-5.589,7.548c2.215,13.31-5.867,28.586-16.966,34.589
		c-12.479,6.749-36.467-24.533-64.883-26.521c-5.653-0.396-8.79-2.388-7.019,6.718c8.845,45.474-47.427,70.747-82.895,58.325
		c-18.741-6.564-36.309-31.082-37.083-48.998c-1.106-25.62,34.215-50.427,62.322-12.611c7.891-27.157-67.055-71.122-93.927-9.082
		c-37.21,85.905,108.458,123.422,207.853,57.338c45.604-30.321,172.342-163.14,349.758-90.637
		c9.198,3.759,18.248,7.759,27.094,12.106c4.348,8.847,8.348,17.897,12.107,27.094c72.503,177.415-60.317,304.154-90.637,349.758
		c-66.084,99.395-28.567,245.062,57.338,207.852c62.04-26.872,18.074-101.818-9.082-93.927
		c37.816,28.107,13.01,63.428-12.611,62.322c-17.916-0.773-42.434-18.341-48.998-37.083c-12.422-35.467,12.851-91.739,58.325-82.894
		c9.106,1.771,7.113-1.366,6.718-7.019c-1.988-28.415-33.27-52.403-26.521-64.883c6.003-11.1,21.28-19.182,34.589-16.966
		c5.735,0.955,6.896-0.21,7.548-5.589c5.861-48.37,31.461-49.989,37.824-67.786c10.62-29.706,6.635-41.182,8.008-56.846
		c0.418-4.773,4.431-6.913,7.05-1.405c35.007,73.609-29.418,118.085-2.869,219.596c21.067,80.552,35.365,124.372,7.372,173.177
		c-0.967,1.686-2.974,3.563-0.495,5.268c8.225,5.656,10.859,16.86,20.87,20.747c3.949,1.534,3.57,4.434,0.981,6.831
		c-9.788,9.061-14.588,22.862-27.535,28.906c-3.281,1.532-4.014,3.403-1.721,6.827c11.599,17.315,16.51,36.635,19.379,56.535
		c-2.87,19.9-7.781,39.22-19.379,56.535c-2.294,3.424-1.561,5.296,1.721,6.827c12.948,6.044,17.747,19.845,27.535,28.906
		c2.589,2.397,2.968,5.297-0.981,6.831c-10.011,3.888-12.646,15.091-20.87,20.747c-2.479,1.705-0.472,3.583,0.495,5.268
		c27.994,48.805,13.696,92.625-7.372,173.177c-26.549,101.511,37.876,145.987,2.869,219.596c-2.619,5.509-6.632,3.368-7.05-1.405
		c-1.373-15.664,2.612-27.141-8.008-56.846c-6.363-17.797-31.963-19.416-37.824-67.786c-0.652-5.378-1.813-6.543-7.548-5.589
		c-13.31,2.215-28.586-5.867-34.589-16.966c-6.749-12.479,24.533-36.467,26.521-64.883c0.396-5.653,2.388-8.79-6.718-7.019
		c-45.474,8.845-70.747-47.427-58.325-82.895c6.564-18.741,31.082-36.309,48.998-37.083c25.62-1.106,50.427,34.215,12.611,62.322
		c27.157,7.891,71.122-67.055,9.082-93.927c-85.905-37.21-123.422,108.458-57.338,207.853
		c30.321,45.604,163.14,172.342,90.637,349.758c-3.759,9.198-7.759,18.248-12.107,27.094c-8.847,4.348-17.897,8.348-27.094,12.107
		c-177.415,72.503-304.154-60.317-349.758-90.637c-99.395-66.084-245.062-28.567-207.853,57.338
		c26.872,62.04,101.818,18.074,93.927-9.082c-28.107,37.816-63.428,13.01-62.322-12.611c0.773-17.916,18.341-42.434,37.083-48.998
		c35.467-12.422,91.739,12.851,82.895,58.325c-1.771,9.106,1.366,7.113,7.019,6.718c28.415-1.988,52.403-33.27,64.883-26.521
		c11.1,6.003,19.182,21.28,16.966,34.589c-0.954,5.735,0.21,6.896,5.589,7.548c48.37,5.861,49.989,31.461,67.786,37.824
		c29.706,10.62,41.182,6.635,56.846,8.008c4.773,0.418,6.913,4.431,1.405,7.05c-73.609,35.007-118.085-29.418-219.596-2.869
		c-80.552,21.067-124.372,35.365-173.177,7.372c-1.686-0.967-3.563-2.974-5.268-0.495c-5.656,8.225-16.86,10.859-20.747,20.87
		c-1.534,3.949-4.434,3.57-6.831,0.981c-9.061-9.788-22.862-14.588-28.906-27.535c-1.532-3.281-3.403-4.014-6.827-1.721
		c-17.315,11.599-36.635,16.51-56.535,19.379c-19.9-2.87-39.22-7.781-56.535-19.379c-3.424-2.294-5.296-1.561-6.827,1.721
		c-6.044,12.948-19.845,17.747-28.906,27.535c-2.397,2.589-5.297,2.968-6.831-0.981c-3.888-10.011-15.091-12.646-20.747-20.87
		c-1.706-2.479-3.583-0.472-5.268,0.495c-48.805,27.994-92.625,13.696-173.177-7.372c-101.511-26.549-145.987,37.876-219.596,2.869
		c-5.509-2.619-3.368-6.632,1.405-7.05c15.664-1.373,27.141,2.612,56.846-8.008c17.797-6.363,19.416-31.963,67.786-37.824
		c5.378-0.652,6.543-1.813,5.589-7.548c-2.215-13.31,5.867-28.586,16.966-34.589c12.479-6.749,36.467,24.533,64.883,26.521
		c5.653,0.396,8.79,2.388,7.019-6.718c-8.845-45.474,47.427-70.747,82.894-58.325c18.741,6.564,36.309,31.082,37.083,48.998
		c1.106,25.62-34.215,50.427-62.322,12.611c-7.891,27.157,67.055,71.122,93.927,9.082c37.21-85.905-108.458-123.422-207.852-57.338
		c-45.604,30.321-172.342,163.14-349.758,90.637c-9.197-3.759-18.248-7.759-27.094-12.107c-4.348-8.847-8.348-17.897-12.106-27.094
		c-72.503-177.415,60.317-304.154,90.637-349.758c66.084-99.395,28.567-245.062-57.338-207.853
		c-62.04,26.872-18.075,101.818,9.082,93.927c-37.816-28.107-13.01-63.428,12.611-62.322c17.916,0.773,42.434,18.341,48.998,37.083
		c12.422,35.467-12.851,91.739-58.325,82.895c-9.106-1.771-7.113,1.366-6.718,7.019c1.988,28.415,33.27,52.403,26.521,64.883
		c-6.003,11.1-21.28,19.182-34.589,16.966c-5.735-0.954-6.896,0.21-7.548,5.589c-5.861,48.37-31.461,49.989-37.824,67.786
		c-10.62,29.706-6.635,41.182-8.008,56.846c-0.418,4.773-4.431,6.913-7.05,1.405c-35.007-73.609,29.418-118.085,2.869-219.596
		c-21.067-80.552-35.365-124.372-7.372-173.177c0.967-1.686,2.974-3.563,0.495-5.268c-8.225-5.656-10.859-16.86-20.87-20.747
		c-3.949-1.534-3.57-4.434-0.981-6.831c9.788-9.061,14.588-22.862,27.535-28.906c3.281-1.532,4.014-3.403,1.721-6.827
		c-11.599-17.315-16.51-36.635-19.379-56.535c2.87-19.9,7.781-39.22,19.379-56.535c2.294-3.424,1.561-5.296-1.721-6.827
		c-12.948-6.044-17.747-19.845-27.535-28.906c-2.59-2.397-2.968-5.297,0.981-6.831c10.011-3.888,12.646-15.091,20.87-20.747
		c2.479-1.706,0.472-3.583-0.495-5.268c-27.994-48.805-13.696-92.625,7.372-173.177c26.549-101.511-37.876-145.987-2.869-219.596
		c2.619-5.509,6.632-3.368,7.05,1.405c1.373,15.664-2.612,27.141,8.008,56.846c6.363,17.797,31.963,19.416,37.824,67.786
		c0.652,5.378,1.813,6.543,7.548,5.589c13.31-2.215,28.586,5.867,34.589,16.966c6.749,12.479-24.533,36.467-26.521,64.883
		c-0.396,5.653-2.388,8.79,6.718,7.019c45.474-8.845,70.747,47.427,58.325,82.894c-6.564,18.741-31.082,36.309-48.998,37.083
		c-25.62,1.106-50.427-34.215-12.611-62.322c-27.157-7.891-71.122,67.055-9.082,93.927c85.905,37.21,123.422-108.458,57.338-207.852
		c-30.321-45.604-163.14-172.342-90.637-349.758c3.759-9.197,7.759-18.248,12.106-27.094c8.847-4.348,17.897-8.348,27.094-12.106
		c177.415-72.503,304.154,60.317,349.758,90.637c99.395,66.084,245.062,28.567,207.852-57.338
		c-26.872-62.04-101.818-18.075-93.927,9.082c28.107-37.816,63.428-13.01,62.322,12.611c-0.773,17.916-18.341,42.434-37.083,48.998
		c-35.467,12.422-91.739-12.851-82.894-58.325c1.771-9.106-1.366-7.113-7.019-6.718c-28.415,1.988-52.403,33.27-64.883,26.521
		c-11.1-6.003-19.182-21.28-16.966-34.589c0.955-5.735-0.21-6.896-5.589-7.548c-48.37-5.861-49.989-31.461-67.786-37.824
		c-29.706-10.62-41.182-6.635-56.846-8.008c-4.773-0.418-6.913-4.431-1.405-7.05c73.609-35.007,118.085,29.418,219.596,2.869
		c80.552-21.067,124.372-35.365,173.177-7.372c1.686,0.967,3.563,2.974,5.268,0.495c5.656-8.225,16.86-10.859,20.747-20.87
		c1.534-3.949,4.434-3.57,6.831-0.981c9.061,9.788,22.862,14.588,28.906,27.535c1.532,3.281,3.403,4.014,6.827,1.721
		C791.309,50.153,810.629,45.242,830.529,42.373z M1436.997,224.061c-3.122-15.683-14.024-29.064-30.151-32.363
		c-26.381-5.397-45.316,10.506-40.6,35.506c2.675,14.175,16.07,10.188,15.297,18.491c-0.848,9.098-37.49,0.107-42.67-18.364
		c-10.424-37.172,11.781-77.511,61.661-90.836c8.465-2.262,8.839,4.997-16.421-50.929c-2.815-6.233-6.568-8.278-13.722-6.462
		c-28.189,7.153-55.225,16.939-80.25,31.979c-86.495,51.982-86.529,71.435-144.571,94.191
		c-90.797,35.599-181.577-8.996-186.002-51.304c-11.202-107.071,135.366-92.962,115.266-7.057c-0.843,3.603-4.048,5.942-7.049,5.439
		c-5.136-0.862-1.221-4.431-0.969-6.841c1.267-12.108-9.393-25.58-23.016-29.019c-19.635-4.956-41.982,18.718-21.809,48.163
		c17.481,25.516,61.103,22.519,79.905,7.532c13.826-11.021,18.5-41.635,5.488-53.373c-6.694-6.039,0.538-10.108,5.336-8.508
		c14.117,4.71,5.739,8.623,22.743,11.667c16.623,2.976,33.708,5.368,45.574,19.555c2.902,3.47,6.128,1.988,8.498,0.056
		c11.692-9.535,25.472-20.804,5.943-38.796c-7.026-6.473-0.067-14.315,6.477-7.79c6.316,6.298,25.219,7.816,54.016-8.352
		c22.456-12.608,36.334-27.339,77.912-26.098c-7.865-19.574-82.58,1.609-106.185,6.767
		c-85.087,18.593-118.006-13.126-200.357-23.523c-55.265-6.977-95.87,30.11-102.103,56.298c-1.016,4.268-4.989,6.497-7.331,2.308
		c-2.926-5.233-7.539-8.732-10.8-13.563c-17.488-25.911-46.43-36.042-76.577-40.744c-30.147,4.702-59.089,14.833-76.577,40.744
		c-3.261,4.831-7.874,8.33-10.8,13.563c-2.342,4.189-6.315,1.96-7.331-2.308c-6.233-26.188-46.838-63.276-102.103-56.298
		C551.366,54.19,518.448,85.91,433.36,67.316c-23.604-5.158-98.32-26.341-106.185-6.767c41.578-1.242,55.456,13.49,77.912,26.098
		c28.798,16.168,47.7,14.65,54.016,8.352c6.543-6.525,13.502,1.317,6.477,7.79c-19.529,17.992-5.748,29.261,5.943,38.796
		c2.37,1.933,5.596,3.414,8.498-0.056c11.865-14.187,28.951-16.579,45.574-19.555c17.004-3.044,8.626-6.957,22.743-11.667
		c4.797-1.6,12.03,2.469,5.336,8.508c-13.012,11.739-8.338,42.352,5.488,53.373c18.802,14.987,62.425,17.984,79.906-7.532
		c20.173-29.445-2.174-53.119-21.809-48.163c-13.623,3.439-24.283,16.911-23.016,29.019c0.252,2.41,4.167,5.979-0.969,6.841
		c-3.001,0.504-6.206-1.836-7.049-5.439c-20.1-85.906,126.468-100.015,115.266,7.057c-4.426,42.307-95.205,86.902-186.002,51.304
		c-58.042-22.756-58.076-42.21-144.571-94.191c-25.025-15.04-52.061-24.826-80.25-31.979c-7.154-1.815-10.906,0.229-13.722,6.462
		c-25.26,55.926-24.886,48.667-16.421,50.929c49.879,13.325,72.085,53.664,61.661,90.836c-5.18,18.471-41.822,27.462-42.67,18.364
		c-0.774-8.302,12.622-4.316,15.297-18.491c4.716-25-14.219-40.903-40.6-35.506c-16.127,3.299-27.029,16.68-30.151,32.363
		c-15.683,3.122-29.064,14.024-32.363,30.151c-5.397,26.381,10.506,45.316,35.506,40.6c14.175-2.674,10.188-16.07,18.491-15.297
		c9.098,0.848,0.107,37.49-18.364,42.67c-37.172,10.424-77.511-11.781-90.836-61.661c-2.262-8.465,4.997-8.84-50.929,16.421
		c-6.233,2.815-8.278,6.568-6.462,13.722c7.153,28.189,16.939,55.225,31.979,80.25c51.982,86.495,71.435,86.529,94.191,144.571
		c35.599,90.797-8.996,181.577-51.304,186.002c-107.071,11.202-92.962-135.366-7.057-115.266c3.603,0.843,5.942,4.048,5.439,7.049
		c-0.862,5.136-4.431,1.221-6.841,0.969c-12.108-1.267-25.58,9.393-29.019,23.016c-4.956,19.635,18.718,41.982,48.163,21.809
		c25.516-17.481,22.519-61.103,7.532-79.906c-11.021-13.826-41.635-18.5-53.373-5.488c-6.039,6.694-10.108-0.538-8.508-5.336
		c4.71-14.117,8.623-5.739,11.667-22.743c2.976-16.623,5.368-33.708,19.555-45.574c3.47-2.902,1.988-6.128,0.056-8.498
		c-9.535-11.692-20.804-25.472-38.796-5.943c-6.473,7.026-14.315,0.067-7.79-6.477c6.298-6.316,7.816-25.219-8.352-54.016
		c-12.608-22.456-27.339-36.334-26.098-77.912c-19.574,7.865,1.609,82.58,6.767,106.185C85.91,518.448,54.19,551.366,43.793,633.717
		c-6.977,55.265,30.11,95.87,56.298,102.103c4.268,1.016,6.497,4.989,2.308,7.331c-5.233,2.926-8.732,7.539-13.563,10.8
		c-25.911,17.488-36.042,46.43-40.744,76.577c4.702,30.147,14.833,59.089,40.744,76.577c4.831,3.261,8.33,7.874,13.563,10.8
		c4.189,2.342,1.96,6.315-2.308,7.331c-26.188,6.233-63.276,46.838-56.298,102.103c10.397,82.351,42.116,115.27,23.523,200.357
		c-5.158,23.604-26.341,98.32-6.767,106.185c-1.242-41.578,13.49-55.456,26.098-77.912c16.168-28.798,14.65-47.7,8.352-54.016
		c-6.525-6.543,1.317-13.502,7.79-6.477c17.992,19.529,29.261,5.748,38.796-5.943c1.933-2.37,3.414-5.596-0.056-8.498
		c-14.187-11.865-16.579-28.951-19.555-45.574c-3.044-17.004-6.957-8.626-11.667-22.743c-1.6-4.797,2.469-12.03,8.508-5.336
		c11.739,13.012,42.352,8.338,53.373-5.488c14.987-18.802,17.984-62.425-7.532-79.905c-29.445-20.173-53.119,2.174-48.163,21.809
		c3.439,13.623,16.911,24.283,29.019,23.016c2.41-0.252,5.979-4.167,6.841,0.969c0.504,3.001-1.836,6.206-5.439,7.049
		c-85.906,20.1-100.015-126.468,7.057-115.266c42.307,4.426,86.902,95.205,51.304,186.002
		c-22.756,58.042-42.21,58.076-94.191,144.571c-15.04,25.025-24.826,52.061-31.979,80.25c-1.815,7.154,0.229,10.906,6.462,13.722
		c55.926,25.26,48.667,24.886,50.929,16.421c13.325-49.879,53.664-72.085,90.836-61.661c18.471,5.18,27.462,41.822,18.364,42.67
		c-8.302,0.774-4.316-12.622-18.491-15.297c-25-4.716-40.903,14.219-35.506,40.6c3.299,16.127,16.68,27.029,32.363,30.151
		c3.122,15.683,14.024,29.064,30.151,32.363c26.381,5.397,45.316-10.506,40.6-35.506c-2.674-14.175-16.07-10.188-15.297-18.491
		c0.848-9.098,37.49-0.107,42.67,18.364c10.424,37.172-11.781,77.511-61.661,90.836c-8.465,2.262-8.84-4.997,16.421,50.929
		c2.815,6.233,6.568,8.278,13.722,6.463c28.189-7.153,55.225-16.939,80.25-31.979c86.495-51.982,86.529-71.435,144.571-94.191
		c90.797-35.599,181.577,8.996,186.002,51.303c11.202,107.071-135.366,92.962-115.266,7.057c0.843-3.603,4.048-5.942,7.049-5.439
		c5.136,0.862,1.221,4.431,0.969,6.841c-1.267,12.108,9.393,25.58,23.016,29.019c19.635,4.956,41.982-18.718,21.809-48.163
		c-17.481-25.516-61.103-22.519-79.906-7.532c-13.826,11.021-18.5,41.635-5.488,53.373c6.694,6.039-0.538,10.108-5.336,8.508
		c-14.117-4.71-5.739-8.623-22.743-11.667c-16.623-2.976-33.708-5.368-45.574-19.555c-2.902-3.47-6.128-1.988-8.498-0.056
		c-11.692,9.535-25.472,20.804-5.943,38.796c7.026,6.473,0.067,14.315-6.477,7.789c-6.316-6.298-25.219-7.816-54.016,8.352
		c-22.456,12.608-36.334,27.339-77.912,26.098c7.865,19.574,82.58-1.609,106.185-6.767c85.087-18.594,118.006,13.126,200.357,23.523
		c55.265,6.977,95.87-30.11,102.103-56.298c1.016-4.268,4.989-6.497,7.331-2.308c2.926,5.233,7.539,8.732,10.8,13.563
		c17.488,25.911,46.43,36.042,76.577,40.744c30.147-4.702,59.089-14.833,76.577-40.744c3.261-4.831,7.874-8.33,10.8-13.563
		c2.342-4.189,6.315-1.96,7.331,2.308c6.233,26.188,46.838,63.276,102.103,56.298c82.351-10.397,115.27-42.116,200.357-23.523
		c23.604,5.158,98.32,26.341,106.185,6.767c-41.578,1.242-55.456-13.49-77.912-26.098c-28.798-16.168-47.7-14.65-54.016-8.352
		c-6.543,6.525-13.502-1.317-6.477-7.789c19.529-17.992,5.748-29.261-5.943-38.796c-2.37-1.933-5.596-3.414-8.498,0.056
		c-11.865,14.187-28.951,16.579-45.574,19.555c-17.004,3.044-8.626,6.957-22.743,11.667c-4.797,1.6-12.03-2.469-5.336-8.508
		c13.012-11.739,8.338-42.352-5.488-53.373c-18.802-14.987-62.425-17.984-79.905,7.532c-20.173,29.445,2.174,53.12,21.809,48.163
		c13.623-3.438,24.283-16.911,23.016-29.019c-0.252-2.41-4.167-5.979,0.969-6.841c3.001-0.504,6.206,1.836,7.049,5.439
		c20.1,85.906-126.468,100.015-115.266-7.057c4.426-42.307,95.205-86.902,186.002-51.303c58.042,22.756,58.076,42.21,144.571,94.191
		c25.025,15.04,52.061,24.826,80.25,31.979c7.154,1.815,10.906-0.229,13.722-6.463c25.26-55.926,24.886-48.667,16.421-50.929
		c-49.879-13.325-72.085-53.664-61.661-90.836c5.18-18.471,41.822-27.462,42.67-18.364c0.774,8.302-12.622,4.316-15.297,18.491
		c-4.716,25,14.219,40.903,40.6,35.506c16.127-3.299,27.029-16.68,30.151-32.363c15.683-3.122,29.064-14.024,32.363-30.151
		c5.397-26.381-10.506-45.316-35.506-40.6c-14.175,2.675-10.188,16.07-18.491,15.297c-9.098-0.848-0.107-37.49,18.364-42.67
		c37.172-10.424,77.511,11.781,90.836,61.661c2.262,8.465-4.997,8.839,50.929-16.421c6.233-2.815,8.278-6.568,6.463-13.722
		c-7.153-28.189-16.939-55.225-31.979-80.25c-51.982-86.495-71.435-86.529-94.191-144.571
		c-35.599-90.797,8.996-181.577,51.303-186.002c107.071-11.202,92.962,135.366,7.057,115.266c-3.603-0.843-5.942-4.048-5.439-7.049
		c0.862-5.136,4.431-1.221,6.841-0.969c12.108,1.267,25.58-9.393,29.019-23.016c4.956-19.635-18.718-41.982-48.163-21.809
		c-25.516,17.481-22.519,61.103-7.532,79.905c11.021,13.826,41.635,18.5,53.373,5.488c6.039-6.694,10.108,0.538,8.508,5.336
		c-4.71,14.117-8.623,5.739-11.667,22.743c-2.976,16.623-5.368,33.708-19.555,45.574c-3.47,2.902-1.988,6.128-0.056,8.498
		c9.535,11.692,20.804,25.472,38.796,5.943c6.473-7.026,14.315-0.067,7.789,6.477c-6.298,6.316-7.816,25.219,8.352,54.016
		c12.608,22.456,27.339,36.334,26.098,77.912c19.574-7.865-1.609-82.58-6.767-106.185c-18.594-85.087,13.126-118.006,23.523-200.357
		c6.977-55.265-30.11-95.87-56.298-102.103c-4.268-1.016-6.497-4.989-2.308-7.331c5.233-2.926,8.732-7.539,13.563-10.8
		c25.911-17.488,36.042-46.43,40.744-76.577c-4.702-30.147-14.833-59.089-40.744-76.577c-4.831-3.261-8.33-7.874-13.563-10.8
		c-4.189-2.342-1.96-6.315,2.308-7.331c26.188-6.233,63.276-46.838,56.298-102.103c-10.397-82.351-42.116-115.269-23.523-200.357
		c5.158-23.604,26.341-98.32,6.767-106.185c1.242,41.578-13.49,55.456-26.098,77.912c-16.168,28.798-14.65,47.7-8.352,54.016
		c6.525,6.543-1.317,13.502-7.789,6.477c-17.992-19.529-29.261-5.748-38.796,5.943c-1.933,2.37-3.414,5.596,0.056,8.498
		c14.187,11.865,16.579,28.951,19.555,45.574c3.044,17.004,6.957,8.626,11.667,22.743c1.6,4.797-2.469,12.03-8.508,5.336
		c-11.739-13.012-42.352-8.338-53.373,5.488c-14.987,18.802-17.984,62.425,7.532,79.906c29.445,20.173,53.12-2.174,48.163-21.809
		c-3.438-13.623-16.911-24.283-29.019-23.016c-2.41,0.252-5.979,4.167-6.841-0.969c-0.504-3.001,1.836-6.206,5.439-7.049
		c85.906-20.1,100.015,126.468-7.057,115.266c-42.307-4.426-86.902-95.205-51.303-186.002
		c22.756-58.042,42.21-58.076,94.191-144.571c15.04-25.025,24.826-52.061,31.979-80.25c1.815-7.154-0.229-10.906-6.463-13.722
		c-55.926-25.26-48.667-24.886-50.929-16.421c-13.325,49.879-53.664,72.085-90.836,61.661c-18.471-5.18-27.462-41.822-18.364-42.67
		c8.302-0.774,4.316,12.622,18.491,15.297c25,4.716,40.903-14.219,35.506-40.6C1466.06,238.085,1452.679,227.183,1436.997,224.061z
		 M830.529,201.829c6.1,1.77,12.719,2.014,19.402,0.414c26.813-6.419,32.574-44.557,3.206-54.33
		c-7.543-2.51-13.156-10.024-22.608-7.985c-9.452-2.039-15.065,5.475-22.608,7.985c-29.368,9.773-23.607,47.911,3.206,54.33
		C817.81,203.842,824.429,203.599,830.529,201.829z M201.829,830.529c1.77-6.1,2.014-12.719,0.414-19.402
		c-6.419-26.813-44.557-32.574-54.33-3.206c-2.51,7.543-10.024,13.156-7.985,22.608c-2.039,9.452,5.475,15.065,7.985,22.608
		c9.773,29.368,47.911,23.607,54.33-3.206C203.842,843.247,203.599,836.629,201.829,830.529z M830.529,1459.229
		c-6.1-1.77-12.719-2.013-19.402-0.414c-26.813,6.419-32.574,44.557-3.206,54.33c7.543,2.51,13.156,10.024,22.608,7.985
		c9.452,2.039,15.065-5.475,22.608-7.985c29.368-9.773,23.607-47.911-3.206-54.33
		C843.247,1457.216,836.629,1457.459,830.529,1459.229z M1459.229,830.529c-1.77,6.1-2.013,12.719-0.414,19.402
		c6.419,26.813,44.557,32.574,54.33,3.206c2.51-7.543,10.024-13.156,7.985-22.608c2.039-9.452-5.475-15.065-7.985-22.608
		c-9.773-29.368-47.911-23.607-54.33,3.206C1457.216,817.81,1457.459,824.429,1459.229,830.529z M830.529,139.603
		c14.779-13.895,49.374-14.154,74.279,20.125c14.937,20.559,29.352,41.078,49.615,57.213c81.96,65.264,200.952,61.466,277.245,1.745
		c0.467,0.765,0.934,1.53,1.401,2.295c-11.806,11.158-17.749,13.243-11.726,27.439c4.28,10.088,12.979,16.061,14.982,30.352
		c1.009,7.194,4.577,8.168,10.972,6.274c19.508-5.778,37.555-13.782,52.452-28.335c12.458-12.17,12.994-0.609,27.999,10.379
		c11.445,8.382,30.506,15.604,49.8,16.419c0.816,19.295,8.038,38.355,16.42,49.8c10.989,15.005,22.55,15.541,10.38,27.999
		c-14.553,14.897-22.557,32.944-28.335,52.452c-1.894,6.395-0.92,9.963,6.274,10.971c14.292,2.003,20.265,10.702,30.352,14.982
		c14.196,6.023,16.281,0.081,27.439-11.726c0.765,0.467,1.53,0.934,2.295,1.401c-59.721,76.293-63.519,195.285,1.745,277.245
		c16.136,20.264,36.654,34.678,57.213,49.615c34.279,24.905,34.02,59.5,20.125,74.279c13.895,14.779,14.154,49.374-20.125,74.279
		c-20.559,14.937-41.078,29.352-57.213,49.615c-65.264,81.96-61.466,200.952-1.745,277.245c-0.765,0.467-1.53,0.934-2.295,1.401
		c-11.158-11.806-13.243-17.749-27.439-11.726c-10.088,4.28-16.061,12.979-30.352,14.982c-7.194,1.009-8.168,4.577-6.274,10.972
		c5.778,19.508,13.782,37.555,28.335,52.452c12.17,12.458,0.609,12.994-10.38,27.999c-8.382,11.445-15.604,30.506-16.42,49.8
		c-19.295,0.816-38.355,8.038-49.8,16.42c-15.005,10.989-15.541,22.55-27.999,10.38c-14.897-14.553-32.944-22.557-52.452-28.335
		c-6.395-1.894-9.963-0.92-10.972,6.274c-2.003,14.292-10.702,20.265-14.982,30.352c-6.023,14.196-0.081,16.281,11.726,27.439
		c-0.467,0.765-0.934,1.53-1.401,2.295c-76.293-59.721-195.285-63.519-277.245,1.745c-20.264,16.136-34.678,36.654-49.615,57.213
		c-24.905,34.279-59.5,34.02-74.279,20.125c-14.779,13.895-49.374,14.154-74.279-20.125c-14.937-20.559-29.352-41.078-49.615-57.213
		c-81.961-65.264-200.952-61.466-277.245-1.745c-0.467-0.765-0.934-1.53-1.401-2.295c11.806-11.158,17.749-13.243,11.726-27.439
		c-4.28-10.088-12.979-16.061-14.982-30.352c-1.008-7.194-4.577-8.168-10.971-6.274c-19.508,5.778-37.555,13.782-52.452,28.335
		c-12.458,12.17-12.994,0.609-27.999-10.38c-11.445-8.382-30.506-15.604-49.8-16.42c-0.816-19.295-8.038-38.355-16.419-49.8
		c-10.988-15.005-22.55-15.541-10.379-27.999c14.553-14.897,22.557-32.944,28.335-52.452c1.894-6.395,0.92-9.963-6.274-10.972
		c-14.292-2.003-20.265-10.702-30.352-14.982c-14.196-6.023-16.281-0.081-27.439,11.726c-0.765-0.467-1.53-0.934-2.295-1.401
		c59.721-76.293,63.519-195.285-1.745-277.245c-16.136-20.264-36.654-34.678-57.213-49.615c-34.279-24.905-34.02-59.5-20.125-74.279
		c-13.895-14.779-14.154-49.374,20.125-74.279c20.559-14.937,41.078-29.352,57.213-49.615
		c65.264-81.961,61.466-200.952,1.745-277.245c0.765-0.467,1.53-0.934,2.295-1.401c11.158,11.806,13.243,17.749,27.439,11.726
		c10.088-4.28,16.061-12.979,30.352-14.982c7.194-1.008,8.168-4.577,6.274-10.971c-5.778-19.508-13.782-37.555-28.335-52.452
		c-12.17-12.458-0.609-12.994,10.379-27.999c8.382-11.445,15.604-30.506,16.419-49.8c19.295-0.816,38.355-8.038,49.8-16.419
		c15.005-10.988,15.541-22.55,27.999-10.379c14.897,14.553,32.944,22.557,52.452,28.335c6.395,1.894,9.963,0.92,10.971-6.274
		c2.003-14.292,10.702-20.265,14.982-30.352c6.023-14.196,0.081-16.281-11.726-27.439c0.467-0.765,0.934-1.53,1.401-2.295
		c76.293,59.721,195.285,63.519,277.245-1.745c20.264-16.136,34.678-36.654,49.615-57.213
		C781.155,125.448,815.75,125.708,830.529,139.603z"/>
	<path d="M1279.883,157.544c25.9-18.911,76.841-39.19,57.903-21.251c-14.262,13.509-20.409,31.548-27.566,49.046
		c-5.834,14.263-24.362,32.064-41.059,22.708C1257.2,201.344,1254.541,176.048,1279.883,157.544z M1324.042,142.513
		c-21.81,8.201-52.703,32.06-50.691,55.435c1.411,16.384,19.755,3.859,28.153-9.247
		C1310.752,174.269,1314.777,157.22,1324.042,142.513z"/>
	<path d="M157.544,381.175c-18.911-25.9-39.19-76.841-21.251-57.903c13.509,14.262,31.548,20.409,49.046,27.566
		c14.263,5.834,32.064,24.362,22.708,41.059C201.344,403.858,176.048,406.517,157.544,381.175z M142.513,337.016
		c8.201,21.81,32.06,52.703,55.435,50.691c16.384-1.411,3.859-19.755-9.247-28.152C174.269,350.306,157.22,346.281,142.513,337.016z
		"/>
	<path d="M381.175,1503.514c-25.9,18.911-76.841,39.19-57.903,21.251c14.262-13.509,20.409-31.548,27.566-49.046
		c5.834-14.263,24.362-32.064,41.059-22.708C403.858,1459.714,406.517,1485.01,381.175,1503.514z M337.016,1518.545
		c21.81-8.201,52.703-32.06,50.691-55.435c-1.411-16.385-19.755-3.859-28.152,9.246
		C350.306,1486.789,346.281,1503.838,337.016,1518.545z"/>
	<path d="M1503.514,1279.883c18.911,25.9,39.19,76.841,21.251,57.903c-13.509-14.262-31.548-20.409-49.046-27.566
		c-14.263-5.834-32.064-24.362-22.708-41.059C1459.714,1257.2,1485.01,1254.541,1503.514,1279.883z M1518.545,1324.042
		c-8.201-21.81-32.06-52.703-55.435-50.691c-16.385,1.411-3.859,19.755,9.246,28.153
		C1486.789,1310.752,1503.838,1314.777,1518.545,1324.042z"/>
	<path d="M1503.514,381.175c18.911-25.9,39.19-76.841,21.251-57.903c-13.509,14.262-31.548,20.409-49.046,27.566
		c-14.263,5.834-32.064,24.362-22.708,41.059C1459.714,403.858,1485.01,406.517,1503.514,381.175z M1518.545,337.016
		c-8.201,21.81-32.06,52.703-55.435,50.691c-16.385-1.411-3.859-19.755,9.246-28.152
		C1486.789,350.306,1503.838,346.281,1518.545,337.016z"/>
	<path d="M381.175,157.544c-25.9-18.911-76.841-39.19-57.903-21.251c14.262,13.509,20.409,31.548,27.566,49.046
		c5.834,14.263,24.362,32.064,41.059,22.708C403.858,201.344,406.517,176.048,381.175,157.544z M337.016,142.513
		c21.81,8.201,52.703,32.06,50.691,55.435c-1.411,16.384-19.755,3.859-28.152-9.247C350.306,174.269,346.281,157.22,337.016,142.513
		z"/>
	<path d="M157.544,1279.883c-18.911,25.9-39.19,76.841-21.251,57.903c13.509-14.262,31.548-20.409,49.046-27.566
		c14.263-5.834,32.064-24.362,22.708-41.059C201.344,1257.2,176.048,1254.541,157.544,1279.883z M142.513,1324.042
		c8.201-21.81,32.06-52.703,55.435-50.691c16.384,1.411,3.859,19.755-9.247,28.153
		C174.269,1310.752,157.22,1314.777,142.513,1324.042z"/>
	<path d="M1279.883,1503.514c25.9,18.911,76.841,39.19,57.903,21.251c-14.262-13.509-20.409-31.548-27.566-49.046
		c-5.834-14.263-24.362-32.064-41.059-22.708C1257.2,1459.714,1254.541,1485.01,1279.883,1503.514z M1324.042,1518.545
		c-21.81-8.201-52.703-32.06-50.691-55.435c1.411-16.385,19.755-3.859,28.153,9.246
		C1310.752,1486.789,1314.777,1503.838,1324.042,1518.545z"/>
</g>
</svg>
